<svg xmlns:dc="http://purl.org/dc/elements/1.1/" xmlns:cc="http://creativecommons.org/ns#" xmlns:rdf="http://www.w3.org/1999/02/22-rdf-syntax-ns#" xmlns:svg="http://www.w3.org/2000/svg" xmlns="http://www.w3.org/2000/svg" xmlns:sodipodi="http://sodipodi.sourceforge.net/DTD/sodipodi-0.dtd" xmlns:inkscape="http://www.inkscape.org/namespaces/inkscape" version="1.1" x="0px" y="0px" viewBox="0 0 100 125"><g transform="translate(0,-952.36218)"><path style="text-indent:0;text-transform:none;direction:ltr;block-progression:tb;baseline-shift:baseline;color:#000000;enable-background:accumulate;" d="m 35.305387,972.081 a 0.80008001,0.80008001 0 0 0 -0.78125,0.8125 l 0,6.25 a 0.80008001,0.80008001 0 1 0 1.59375,0 l 0,-6.25 a 0.80008001,0.80008001 0 0 0 -0.8125,-0.8125 z m 17.4375,6.09375 a 0.80008001,0.80008001 0 0 0 -0.1875,0.0312 0.80008001,0.80008001 0 0 0 -0.375,0.21875 l -4.40625,4.4375 a 0.80008001,0.80008001 0 1 0 1.125,1.125 l 4.40625,-4.40625 a 0.80008001,0.80008001 0 0 0 -0.5625,-1.40625 z m -35.8125,0.0312 a 0.80008001,0.80008001 0 0 0 -0.40625,1.375 l 4.40625,4.40625 a 0.80661934,0.80661934 0 1 0 1.15625,-1.125 l -4.4375,-4.4375 a 0.80008001,0.80008001 0 0 0 -0.71875,-0.21875 z m 18.9375,4.90625 c -8.43007,0 -15.25,6.85791 -15.25,15.28125 0,2.06845 0.44133,4.04725 1.1875,5.84375 -6.90198,1.0863 -12.1875003,6.9651 -12.1875003,14.0938 0,7.8984 6.4825203,14.3125 14.4687503,14.3125 l 51.9375,0 c 7.98623,0 14.46875,-6.4141 14.46875,-14.3125 0,-7.888 -6.46399,-14.2955 -14.4375,-14.3125 -0.0343,-8.85598 -7.28633,-16.02077 -16.21875,-16.1563 -0.0316,-4.8e-4 -0.06215,3e-4 -0.09375,0 -0.0539,-5.2e-4 -0.10223,-0.0312 -0.15625,-0.0312 a 0.80008001,0.80008001 0 0 0 -0.09375,0 0.80008001,0.80008001 0 0 0 -0.0625,0 0.80008001,0.80008001 0 0 0 -0.09375,0.0312 c -3.74456,0.0574 -7.1571,1.38649 -9.875,3.53125 -2.51028,-4.84468 -7.56618,-8.16523 -13.375,-8.25 -0.0317,-4.6e-4 -0.06205,2.7e-4 -0.09375,0 a 0.80008001,0.80008001 0 0 0 -0.03125,-0.0312 c -0.0318,-1.9e-4 -0.06195,0 -0.09375,0 z m 0,1.625 c 5.43833,0 10.07385,3.16753 12.28125,7.75 -1.08448,1.04526 -2.02101,2.22408 -2.78125,3.53125 -0.4912,-0.2117 -0.98845,-0.39252 -1.5,-0.5625 -0.0094,-0.003 -0.02181,0.003 -0.03125,0 -0.52129,-0.17226 -1.05179,-0.31561 -1.59375,-0.4375 -0.53741,-0.12254 -1.09899,-0.2152 -1.65625,-0.28125 -0.0305,-0.003 -0.06319,0.003 -0.09375,0 -0.54779,-0.0615 -1.08994,-0.125 -1.65625,-0.125 -6.59005,0 -12.2178,3.8611 -14.84375,9.4063 -0.17216,0 -0.33325,0.022 -0.5,0.031 -0.79471,-1.7298 -1.28125,-3.631 -1.28125,-5.6563 0,-7.55968 6.09242,-13.65625 13.65625,-13.65625 z m 23.71875,4.6875 a 0.80008001,0.80008001 0 0 0 0.09375,0 c 0.0211,1.3e-4 0.0414,-2.2e-4 0.0625,0 8.14465,0.0837 14.6875,6.61503 14.6875,14.6563 0,0.2393 -0.01775,0.4863 -0.03125,0.75 a 0.80008001,0.80008001 0 0 0 0.875,0.8437 c 0.31212,-0.018 0.55791,-0.062 0.75,-0.062 7.13262,0 12.875,5.6947 12.875,12.7188 0,7.0239 -5.74047,12.6875 -12.875,12.6875 l -51.9375,0 c -7.13453,0 -12.875,-5.6636 -12.875,-12.6875 0,-6.669 5.18444,-12.1203 11.8125,-12.6563 0.31816,-0.026 0.63095,-0.055 0.9375,-0.062 0.04214,-4e-4 0.08276,0 0.125,0 -0.0294,0 0.0878,0.027 0.3125,0.031 0.02181,6e-4 0.0067,0 0.03125,0 a 0.80008001,0.80008001 0 0 0 0.0625,0 0.80008001,0.80008001 0 0 0 0.03125,0 0.80008001,0.80008001 0 0 0 0.40625,-0.1562 0.80008001,0.80008001 0 0 0 0.03125,-0.062 0.80008001,0.80008001 0 0 0 0.03125,-0.031 0.80008001,0.80008001 0 0 0 0.03125,-0.031 0.80008001,0.80008001 0 0 0 0.03125,-0.031 0.80008001,0.80008001 0 0 0 0.03125,-0.031 0.80008001,0.80008001 0 0 0 0,-0.031 0.80008001,0.80008001 0 0 0 0.03125,-0.031 0.80008001,0.80008001 0 0 0 0.03125,-0.031 0.80008001,0.80008001 0 0 0 0,-0.031 c 0.0037,-0.01 -0.0037,-0.023 0,-0.031 0.27769,-0.648 0.60305,-1.2475 0.96875,-1.8438 0.0046,-0.01 -0.0046,-0.024 0,-0.031 0.18127,-0.2943 0.39248,-0.5635 0.59375,-0.8437 0.0048,-0.01 -0.0048,-0.025 0,-0.031 0.20205,-0.2803 0.43513,-0.5474 0.65625,-0.8125 0.0049,-0.01 -0.0049,-0.025 0,-0.031 0.22679,-0.2711 0.47303,-0.5272 0.71875,-0.7813 1.23294,-1.27483 2.6842,-2.31858 4.3125,-3.09375 0.32475,-0.15414 0.66257,-0.30646 1,-0.4375 0.67651,-0.26371 1.37329,-0.49164 2.09375,-0.65625 1.07902,-0.24519 2.18804,-0.375 3.34375,-0.375 0.29224,0 0.58749,0.0144 0.875,0.0312 0.01023,5.8e-4 0.02103,-6e-4 0.03125,0 0.27682,0.0168 0.54035,0.0618 0.8125,0.0937 0.01029,10e-4 0.02097,-10e-4 0.03125,0 0.55424,0.0663 1.09177,0.15551 1.625,0.28125 0.0099,0.002 0.02136,-0.002 0.03125,0 0.53298,0.12683 1.05275,0.28691 1.5625,0.46875 0.0093,0.003 0.02193,-0.003 0.03125,0 0.5096,0.18288 1.01586,0.39153 1.5,0.625 a 0.80008001,0.80008001 0 0 0 0.46875,0.0937 0.80008001,0.80008001 0 0 0 0.0625,-0.0312 0.80008001,0.80008001 0 0 0 0.40625,-0.25 0.80008001,0.80008001 0 0 0 0.0625,-0.0312 0.80008001,0.80008001 0 0 0 0,-0.0312 0.80008001,0.80008001 0 0 0 0.03125,-0.0625 0.80008001,0.80008001 0 0 0 0.03125,-0.0312 c 0.62411,-1.18867 1.39702,-2.2774 2.3125,-3.25 0.2165,-0.23046 0.45588,-0.43967 0.6875,-0.65625 2.65524,-2.48373 6.2318,-4.03125 10.1875,-4.03125 z m -49.375,3.34375 a 0.80008001,0.80008001 0 0 0 0.0625,1.59375 l 6.25,0 a 0.80008001,0.80008001 0 1 0 0,-1.59375 l -6.25,0 a 0.80008001,0.80008001 0 0 0 -0.0625,0 z" fill="#000000" fill-opacity="1" stroke="none" marker="none" visibility="visible" display="inline" overflow="visible"/></g></svg>