<svg xmlns:dc="http://purl.org/dc/elements/1.1/" xmlns:cc="http://creativecommons.org/ns#" xmlns:rdf="http://www.w3.org/1999/02/22-rdf-syntax-ns#" xmlns:svg="http://www.w3.org/2000/svg" xmlns="http://www.w3.org/2000/svg" xmlns:sodipodi="http://sodipodi.sourceforge.net/DTD/sodipodi-0.dtd" xmlns:inkscape="http://www.inkscape.org/namespaces/inkscape" version="1.1" x="0px" y="0px" viewBox="0 0 100 125"><g transform="translate(0,-952.36218)"><path style="text-indent:0;text-transform:none;direction:ltr;block-progression:tb;baseline-shift:baseline;color:#000000;enable-background:accumulate;" d="m 36.062383,972.89445 a 0.80008001,0.80008001 0 0 0 -0.6876,0.8125 l 0,6.25 a 0.80008001,0.80008001 0 1 0 1.5938,0 l 0,-6.25 a 0.80008001,0.80008001 0 0 0 -0.8125,-0.8125 0.80008001,0.80008001 0 0 0 -0.094,0 z m 17.4374,6.09375 a 0.80008001,0.80008001 0 0 0 -0.094,0.0312 0.80008001,0.80008001 0 0 0 -0.375,0.21875 l -4.4063,4.4375 a 0.80008001,0.80008001 0 1 0 1.125,1.125 l 4.4063,-4.40625 a 0.80008001,0.80008001 0 0 0 -0.5625,-1.40625 0.80008001,0.80008001 0 0 0 -0.094,0 z m -35.7187,0.0312 a 0.80008001,0.80008001 0 0 0 -0.4063,1.375 l 4.4063,4.40625 a 0.80663726,0.80663726 0 1 0 1.1563,-1.125 l -4.4376,-4.4375 a 0.80008001,0.80008001 0 0 0 -0.7187,-0.21875 z m 18.9375,6.53125 c -7.5638,0 -13.6562,6.09657 -13.6562,13.65625 0,2.0253 0.4865,3.9264 1.2812,5.6562 0.1668,-0.01 0.3279,-0.031 0.5,-0.031 2.626,-5.54515 8.2536,-9.4062 14.8438,-9.4062 0.5663,0 1.1085,0.0635 1.6562,0.125 0.031,0.003 0.064,-0.003 0.094,0 0.5573,0.0661 1.1188,0.15871 1.6562,0.28125 0.542,0.12189 1.0724,0.26524 1.5938,0.4375 0.01,0.003 0.021,-0.003 0.031,0 0.5116,0.16998 1.0088,0.3508 1.5,0.5625 0.7603,-1.30717 1.6968,-2.48599 2.7812,-3.53125 -2.2073,-4.58247 -6.8428,-7.75 -12.2812,-7.75 z m 23.7188,4.6875 c -3.9558,0 -7.5323,1.54752 -10.1876,4.03125 -0.2316,0.21658 -0.4709,0.42579 -0.6874,0.65625 -0.9156,0.9726 -1.6885,2.06133 -2.3126,3.25 a 0.80008001,0.80008001 0 0 1 -0.031,0.0312 0.80008001,0.80008001 0 0 1 -0.031,0.0625 0.80008001,0.80008001 0 0 1 0,0.0312 0.80008001,0.80008001 0 0 1 -0.063,0.0312 0.80008001,0.80008001 0 0 1 -0.4062,0.25 0.80008001,0.80008001 0 0 1 -0.062,0.0312 0.80008001,0.80008001 0 0 1 -0.4687,-0.0937 c -0.4841,-0.23347 -0.9904,-0.44212 -1.5,-0.625 -0.01,-0.003 -0.021,0.003 -0.031,0 -0.5097,-0.18184 -1.0295,-0.34192 -1.5625,-0.46875 -0.01,-0.002 -0.021,0.002 -0.031,0 -0.5332,-0.12574 -1.0709,-0.21495 -1.625,-0.28125 -0.01,-0.001 -0.021,10e-4 -0.031,0 -0.2721,-0.0319 -0.5356,-0.077 -0.8125,-0.0937 -0.01,-6e-4 -0.021,5.8e-4 -0.031,0 -0.2876,-0.0168 -0.5829,-0.0312 -0.875,-0.0312 -1.1557,0 -2.2647,0.12981 -3.3438,0.375 -0.7204,0.16461 -1.4173,0.39254 -2.0938,0.65625 -0.3374,0.13104 -0.6752,0.28336 -1,0.4375 -1.6283,0.77517 -3.0796,1.8189 -4.3124,3.0937 -0.2457,0.2541 -0.492,0.5102 -0.7188,0.7813 l 0,0.031 c -0.2211,0.2651 -0.4542,0.5322 -0.6562,0.8125 l 0,0.031 c -0.2013,0.2802 -0.4125,0.5494 -0.5938,0.8437 l 0,0.031 c -0.3657,0.5963 -0.6911,1.1958 -0.9688,1.8438 l 0,0.031 a 0.80008001,0.80008001 0 0 1 0,0.031 0.80008001,0.80008001 0 0 1 -0.031,0.031 0.80008001,0.80008001 0 0 1 -0.031,0.031 0.80008001,0.80008001 0 0 1 0,0.031 0.80008001,0.80008001 0 0 1 -0.031,0.031 0.80008001,0.80008001 0 0 1 -0.031,0.031 0.80008001,0.80008001 0 0 1 -0.031,0.031 0.80008001,0.80008001 0 0 1 -0.031,0.031 0.80008001,0.80008001 0 0 1 -0.031,0.062 0.80008001,0.80008001 0 0 1 -0.4063,0.1562 0.80008001,0.80008001 0 0 1 -0.031,0 0.80008001,0.80008001 0 0 1 -0.062,0 c -0.021,0 -0.01,6e-4 -0.031,0 -0.2245,-0 -0.3415,-0.031 -0.3124,-0.031 -0.042,0 -0.083,-4e-4 -0.125,0 -0.3066,0.01 -0.6194,0.037 -0.9376,0.062 -6.628,0.536 -11.8124,5.9873 -11.8124,12.6563 0,7.0239 5.7404,12.6875 12.875,12.6875 l 51.9374,0 c 7.1346,0 12.875,-5.6636 12.875,-12.6875 0,-7.0241 -5.7424,-12.7188 -12.875,-12.7188 -0.1921,0 -0.4378,0.045 -0.75,0.062 a 0.80008001,0.80008001 0 0 1 -0.875,-0.8437 c 0.013,-0.2637 0.031,-0.5107 0.031,-0.75 0,-8.04127 -6.5428,-14.57255 -14.6875,-14.65625 -0.021,-2.2e-4 -0.042,1.3e-4 -0.062,0 a 0.80008001,0.80008001 0 0 1 -0.094,0 z m -49.4688,3.34375 a 0.80069306,0.80069306 0 0 0 0.1562,1.59375 l 6.25,0 a 0.80008001,0.80008001 0 1 0 0,-1.59375 l -6.25,0 a 0.80008001,0.80008001 0 0 0 -0.062,0 0.80008001,0.80008001 0 0 0 -0.094,0 z" fill="#000000" fill-opacity="1" stroke="none" marker="none" visibility="visible" display="inline" overflow="visible" id ="cloudyDark"/></g></svg>