<svg xmlns="http://www.w3.org/2000/svg" viewBox="0 0 64 80" fill="none" x="0px" y="0px"><path fill-rule="evenodd" clip-rule="evenodd" d="M46.6269 40.5632L36.2085 15.812C34.6303 12.0627 29.3697 12.0627 27.7915 15.812L17.3731 40.5632C15.7754 44.3587 19.622 48.4076 23.528 46.5517L31.7702 42.6355C31.9168 42.5659 32.0832 42.5659 32.2298 42.6355L40.472 46.5517C44.378 48.4076 48.2246 44.3587 46.6269 40.5632ZM31.4782 17.3638C31.6824 16.8787 32.3176 16.8787 32.5218 17.3638L42.9402 42.115C43.0587 42.3966 42.99 42.6459 42.8044 42.829C42.7096 42.9225 42.6044 42.9736 42.5136 42.9917C42.4359 43.0071 42.3325 43.0072 42.1886 42.9388L33.9465 39.0226C32.7136 38.4368 31.2864 38.4368 30.0535 39.0226L21.8114 42.9388C21.6675 43.0072 21.5641 43.0071 21.4864 42.9917C21.3956 42.9736 21.2904 42.9225 21.1956 42.829C21.01 42.6459 20.9413 42.3966 21.0598 42.115L31.4782 17.3638Z" fill="black"/><path fill-rule="evenodd" clip-rule="evenodd" d="M32 2C15.4315 2 2 15.4315 2 32C2 48.5685 15.4315 62 32 62C48.5685 62 62 48.5685 62 32C62 15.4315 48.5685 2 32 2ZM6 32C6 17.6406 17.6406 6 32 6C46.3594 6 58 17.6406 58 32C58 46.3594 46.3594 58 32 58C17.6406 58 6 46.3594 6 32Z" fill="black"/></svg>