<svg xmlns="http://www.w3.org/2000/svg" viewBox="0 0 64 80" fill="none" x="0px" y="0px"><path fill-rule="evenodd" clip-rule="evenodd" d="M2 32C2 15.4315 15.4315 2 32 2C48.5685 2 62 15.4315 62 32C62 48.5685 48.5685 62 32 62C15.4315 62 2 48.5685 2 32ZM27.9328 16.6952C29.4654 13.1193 34.5349 13.1192 36.0675 16.6952L45.8864 39.6061C47.487 43.3408 43.6298 47.0775 39.9478 45.3592L32.1799 41.7342C32.066 41.681 31.9343 41.681 31.8204 41.7342L24.0525 45.3592C20.3705 47.0775 16.5133 43.3408 18.1139 39.6061L27.9328 16.6952Z" fill="black" width = "3px" height="3px"/></svg>