<svg xmlns:dc="http://purl.org/dc/elements/1.1/" xmlns:cc="http://creativecommons.org/ns#" xmlns:rdf="http://www.w3.org/1999/02/22-rdf-syntax-ns#" xmlns:svg="http://www.w3.org/2000/svg" xmlns="http://www.w3.org/2000/svg" xmlns:sodipodi="http://sodipodi.sourceforge.net/DTD/sodipodi-0.dtd" xmlns:inkscape="http://www.inkscape.org/namespaces/inkscape" version="1.1" x="0px" y="0px" viewBox="0 0 100 125"><g transform="translate(0,-952.36218)"><path style="color:#000000;enable-background:accumulate;" d="m 59.5,970.41805 c -6.022937,0 -11.251361,3.37429 -13.84375,8.3125 -2.06263,-0.99482 -4.362622,-1.5625 -6.8125,-1.5625 -6.453199,0 -12.010296,3.85581 -14.375,9.375 -0.101294,-0.002 -0.179948,-0.0312 -0.28125,-0.0312 -7.524406,0 -13.625,6.04135 -13.625,13.46875 0,7.4273 6.100594,13.4375 13.625,13.4375 l 51.65625,0 c 7.523514,0 13.59375,-6.0102 13.59375,-13.4375 0,-7.4274 -6.070236,-13.46875 -13.59375,-13.46875 -0.26802,0 -0.51681,0.0472 -0.78125,0.0625 0.0089,-0.26182 0,-0.51613 0,-0.78125 0,-8.49284 -6.958821,-15.375 -15.5625,-15.375 z m -32.625,43.62505 a 1.50015,1.50015 0 0 0 -1.09375,0.625 l -4.25,5.9687 a 1.5003255,1.5003255 0 1 0 2.4375,1.75 l 4.25,-5.9687 a 1.50015,1.50015 0 0 0 -1.34375,-2.375 z m 10.59375,0 a 1.50015,1.50015 0 0 0 -1.09375,0.625 l -4.25,5.9687 a 1.5003255,1.5003255 0 1 0 2.4375,1.75 l 4.25,-5.9687 a 1.50015,1.50015 0 0 0 -1.34375,-2.375 z m 10.59375,0 a 1.50015,1.50015 0 0 0 -1.09375,0.625 l -4.28125,5.9687 a 1.5130455,1.5130455 0 1 0 2.46875,1.75 l 4.25,-5.9687 a 1.50015,1.50015 0 0 0 -1.34375,-2.375 z m 10.5625,0 a 1.50015,1.50015 0 0 0 -1.09375,0.625 l -4.25,5.9687 a 1.5003255,1.5003255 0 1 0 2.4375,1.75 L 60,1016.4181 a 1.50015,1.50015 0 0 0 -1.375,-2.375 z m 10.59375,0 a 1.50015,1.50015 0 0 0 -1.09375,0.625 l -4.25,5.9687 a 1.5003255,1.5003255 0 1 0 2.4375,1.75 l 4.25,-5.9687 a 1.50015,1.50015 0 0 0 -1.34375,-2.375 z m -49.375,9.8125 a 1.50015,1.50015 0 0 0 -1.09375,0.6562 l -5.25,7.4063 a 1.5003255,1.5003255 0 1 0 2.4375,1.75 l 5.25,-7.4063 A 1.50015,1.50015 0 0 0 20,1023.8556 a 1.50015,1.50015 0 0 0 -0.15625,0 z m 10.59375,0 a 1.50015,1.50015 0 0 0 -1.09375,0.6562 l -5.28125,7.4063 a 1.5130455,1.5130455 0 1 0 2.46875,1.75 l 5.25,-7.4063 a 1.50015,1.50015 0 0 0 -1.1875,-2.4062 1.50015,1.50015 0 0 0 -0.15625,0 z m 10.59375,0 a 1.50015,1.50015 0 0 0 -1.09375,0.6562 l -5.28125,7.4063 a 1.5003255,1.5003255 0 1 0 2.4375,1.75 l 5.28125,-7.4063 a 1.50015,1.50015 0 0 0 -1.1875,-2.4062 1.50015,1.50015 0 0 0 -0.15625,0 z m 10.5625,0 a 1.50015,1.50015 0 0 0 -1.0625,0.6562 l -5.28125,7.4063 a 1.5003255,1.5003255 0 1 0 2.4375,1.75 l 5.28125,-7.4063 a 1.50015,1.50015 0 0 0 -1.21875,-2.4062 1.50015,1.50015 0 0 0 -0.15625,0 z m 10.59375,0 a 1.50015,1.50015 0 0 0 -1.09375,0.6562 l -5.25,7.4063 a 1.5003255,1.5003255 0 1 0 2.4375,1.75 l 5.28125,-7.4063 a 1.50015,1.50015 0 0 0 -1.21875,-2.4062 1.50015,1.50015 0 0 0 -0.15625,0 z" fill="#000000" fill-opacity="1" stroke="none" marker="none" visibility="visible" display="inline" overflow="visible"/></g></svg>