<svg xmlns="http://www.w3.org/2000/svg" xmlns:xlink="http://www.w3.org/1999/xlink" version="1.1" x="0px" y="0px" viewBox="0 0 60 75" style="enable-background:new 0 0 60 60;" xml:space="preserve"><path d="M14.8935547,33.9592285h30.2119141C50.0097656,33.9592285,54,30.1643066,54,25.4997559  c0-4.5522461-3.8007813-8.2758789-8.5419922-8.453125c-1.7431641-4.5493164-6.8417969-7.4335938-12.0478516-6.4213867  c-1.9423828-2.8706055-5.2919922-4.6254883-8.9169922-4.6254883c-5.8447266,0-10.5996094,4.5175781-10.5996094,10.0703125  c0,0.3364258,0.0185547,0.6762695,0.0566406,1.0175781C9.4882813,17.5368652,6,21.1379395,6,25.4997559  C6,30.1643066,9.9892578,33.9592285,14.8935547,33.9592285z M14.953125,19.0437012c0.0019531,0,0.0048828,0,0.0068359,0  l0.1464844,0.0073242c0.2929688,0.0102539,0.6064453-0.1293945,0.8007813-0.3696289  c0.1953125-0.2412109,0.2685547-0.5585938,0.1962891-0.8603516c-0.1396484-0.5888672-0.2099609-1.1782227-0.2099609-1.7509766  c0-4.4501953,3.8574219-8.0703125,8.5996094-8.0703125c3.1699219,0,6.0742188,1.6308594,7.5791016,4.2553711  c0.2236328,0.3911133,0.6816406,0.5825195,1.1201172,0.4702148c4.6826172-1.2270508,9.3642578,1.4389648,10.59375,5.6142578  c0.1289063,0.4394531,0.5458984,0.7246094,1,0.7167969l0.1572266-0.0087891  c0.0537109-0.003418,0.1074219-0.0073242,0.1621094-0.0073242C48.9072266,19.0402832,52,21.9377441,52,25.4997559  c0,3.5615234-3.0927734,6.4594727-6.8945313,6.4594727H14.8935547C11.0927734,31.9592285,8,29.0612793,8,25.4997559  C8,21.9401855,11.0888672,19.0437012,14.953125,19.0437012z"/><path d="M14.4472656,36.717041c-0.5068359-0.2158203-1.0947266,0.0170898-1.3134766,0.5263672l-0.9511719,2.2246094  c-0.2167969,0.5078125,0.0185547,1.0952148,0.5263672,1.3125c0.1289063,0.0546875,0.2617188,0.0810547,0.3935547,0.0810547  c0.3876953,0,0.7568359-0.2275391,0.9199219-0.6074219l0.9511719-2.2246094  C15.1904297,37.5217285,14.9550781,36.9343262,14.4472656,36.717041z"/><path d="M11.6386719,43.2858887c-0.5039063-0.2158203-1.09375,0.0175781-1.3125,0.5263672L9.375,46.0373535  c-0.2167969,0.5078125,0.0185547,1.0957031,0.5273438,1.3125c0.1279297,0.0546875,0.2607422,0.0810547,0.3925781,0.0810547  c0.3876953,0,0.7568359-0.2280273,0.9199219-0.6074219l0.9511719-2.2250977  C12.3828125,44.0905762,12.1474609,43.5026855,11.6386719,43.2858887z"/><path d="M8.8300781,49.8552246c-0.5048828-0.2158203-1.09375,0.0175781-1.3125,0.5263672l-0.9511719,2.2250977  c-0.2167969,0.5078125,0.0185547,1.0957031,0.5273438,1.3125c0.1279297,0.0546875,0.2607422,0.0810547,0.3925781,0.0810547  c0.3876953,0,0.7568359-0.2280273,0.9199219-0.6074219l0.9511719-2.2250977  C9.5742188,50.6599121,9.3388672,50.0720215,8.8300781,49.8552246z"/><path d="M21.2851563,36.717041c-0.5087891-0.2158203-1.0947266,0.0170898-1.3134766,0.5263672l-0.9511719,2.2246094  c-0.2167969,0.5078125,0.0185547,1.0952148,0.5263672,1.3125c0.1289063,0.0546875,0.2617188,0.0810547,0.3935547,0.0810547  c0.3876953,0,0.7568359-0.2275391,0.9199219-0.6074219l0.9511719-2.2246094  C22.0283203,37.5217285,21.7929688,36.9343262,21.2851563,36.717041z"/><path d="M18.4755859,43.2858887c-0.5048828-0.2177734-1.0957031,0.0175781-1.3125,0.5268555l-0.9501953,2.2250977  c-0.2167969,0.5078125,0.0195313,1.0952148,0.5273438,1.3120117c0.1279297,0.0551758,0.2607422,0.0810547,0.3925781,0.0810547  c0.3876953,0,0.7578125-0.2280273,0.9199219-0.6079102l0.9501953-2.2250977  C19.2197266,44.0900879,18.9833984,43.5026855,18.4755859,43.2858887z"/><path d="M15.6679688,49.8552246c-0.5039063-0.2158203-1.09375,0.0175781-1.3125,0.5263672l-0.9511719,2.2250977  c-0.2167969,0.5078125,0.0185547,1.0957031,0.5273438,1.3125c0.1279297,0.0546875,0.2607422,0.0810547,0.3925781,0.0810547  c0.3876953,0,0.7568359-0.2280273,0.9199219-0.6074219l0.9511719-2.2250977  C16.4121094,50.6599121,16.1767578,50.0720215,15.6679688,49.8552246z"/><path d="M28.1230469,36.717041c-0.5078125-0.2158203-1.0947266,0.0170898-1.3134766,0.5263672l-0.9511719,2.2246094  c-0.2167969,0.5078125,0.0185547,1.0952148,0.5263672,1.3125c0.1289063,0.0546875,0.2617188,0.0810547,0.3935547,0.0810547  c0.3876953,0,0.7568359-0.2275391,0.9199219-0.6074219l0.9511719-2.2246094  C28.8662109,37.5217285,28.6308594,36.9343262,28.1230469,36.717041z"/><path d="M25.3134766,43.2858887c-0.5039063-0.2158203-1.09375,0.0175781-1.3125,0.5263672l-0.9511719,2.2250977  c-0.2167969,0.5078125,0.0185547,1.0957031,0.5273438,1.3125c0.1279297,0.0546875,0.2607422,0.0810547,0.3925781,0.0810547  c0.3876953,0,0.7568359-0.2280273,0.9199219-0.6074219l0.9511719-2.2250977  C26.0576172,44.0905762,25.8222656,43.5026855,25.3134766,43.2858887z"/><path d="M22.5058594,49.8552246c-0.5039063-0.2158203-1.0947266,0.0175781-1.3125,0.5263672l-0.9511719,2.2250977  c-0.2167969,0.5078125,0.0185547,1.0957031,0.5273438,1.3125c0.1279297,0.0546875,0.2607422,0.0810547,0.3925781,0.0810547  c0.3876953,0,0.7568359-0.2280273,0.9199219-0.6074219l0.9511719-2.2250977  C23.25,50.6599121,23.0146484,50.0720215,22.5058594,49.8552246z"/><path d="M34.9589844,36.717041c-0.5029297-0.2158203-1.0957031,0.0180664-1.3125,0.5268555l-0.9501953,2.2246094  c-0.2167969,0.5078125,0.0195313,1.0952148,0.5273438,1.3120117c0.1279297,0.0546875,0.2607422,0.0810547,0.3925781,0.0810547  c0.3876953,0,0.7578125-0.2280273,0.9199219-0.6079102l0.9501953-2.2246094  C35.703125,37.5212402,35.4667969,36.9338379,34.9589844,36.717041z"/><path d="M32.1513672,43.2858887c-0.5048828-0.2158203-1.09375,0.0175781-1.3125,0.5263672l-0.9511719,2.2250977  c-0.2167969,0.5078125,0.0185547,1.0957031,0.5273438,1.3125c0.1279297,0.0546875,0.2607422,0.0810547,0.3925781,0.0810547  c0.3876953,0,0.7568359-0.2280273,0.9199219-0.6074219l0.9511719-2.2250977  C32.8955078,44.0905762,32.6601563,43.5026855,32.1513672,43.2858887z"/><path d="M29.34375,49.8552246c-0.5048828-0.2158203-1.09375,0.0175781-1.3125,0.5263672l-0.9511719,2.2250977  c-0.2167969,0.5078125,0.0185547,1.0957031,0.5273438,1.3125C27.7353516,53.973877,27.8681641,54.0002441,28,54.0002441  c0.3876953,0,0.7568359-0.2280273,0.9199219-0.6074219l0.9511719-2.2250977  C30.0878906,50.6599121,29.8525391,50.0720215,29.34375,49.8552246z"/><path d="M40.0595703,40.7805176c0.1289063,0.0546875,0.2617188,0.0810547,0.3935547,0.0810547  c0.3876953,0,0.7568359-0.2275391,0.9199219-0.6074219l0.9511719-2.2246094  c0.2167969-0.5078125-0.0185547-1.0952148-0.5263672-1.3125c-0.5078125-0.2158203-1.0947266,0.0170898-1.3134766,0.5263672  l-0.9511719,2.2246094C39.3164063,39.9758301,39.5517578,40.5632324,40.0595703,40.7805176z"/><path d="M38.9892578,43.2858887c-0.5039063-0.2158203-1.09375,0.0175781-1.3125,0.5263672l-0.9511719,2.2250977  c-0.2167969,0.5078125,0.0185547,1.0957031,0.5273438,1.3125c0.1279297,0.0546875,0.2607422,0.0810547,0.3925781,0.0810547  c0.3876953,0,0.7568359-0.2280273,0.9199219-0.6074219l0.9511719-2.2250977  C39.7333984,44.0905762,39.4980469,43.5026855,38.9892578,43.2858887z"/><path d="M36.1806641,49.8552246c-0.5048828-0.2177734-1.0947266,0.0175781-1.3125,0.5268555l-0.9501953,2.2250977  c-0.2167969,0.5078125,0.0195313,1.0952148,0.5273438,1.3120117c0.1279297,0.0551758,0.2607422,0.0810547,0.3925781,0.0810547  c0.3876953,0,0.7578125-0.2280273,0.9199219-0.6079102l0.9501953-2.2250977  C36.9248047,50.6594238,36.6884766,50.0720215,36.1806641,49.8552246z"/></svg>