<svg xmlns="http://www.w3.org/2000/svg" xmlns:xlink="http://www.w3.org/1999/xlink" version="1.1" x="0px" y="0px" viewBox="0 0 100 125" enable-background="new 0 0 100 100" xml:space="preserve"><path fill-rule="evenodd" clip-rule="evenodd" fill="#000000" d="M69.5,57.524v0.051h-41c-5.522,0-10-4.478-10-10  c0-5.523,4.478-10,10-10c0.699,0,1.381,0.073,2.04,0.209c0.417-9.572,8.286-17.209,17.96-17.209c7.619,0,14.117,4.741,16.744,11.427  c1.043-0.269,2.13-0.427,3.256-0.427c7.18,0,13,5.82,13,13C81.5,51.417,76.211,57.012,69.5,57.524z M28.58,62.886l0.323-0.61  l1.119,0.704l0.087-1.572l0.56,0.353l-0.086,1.572l1.119,0.705l-0.323,0.61l-1.119-0.705l-1.207,0.868l-0.56-0.353l1.206-0.868  L28.58,62.886z M29.053,66.339l1.207,0.869l1.119-0.705l0.323,0.61l-1.119,0.704l0.086,1.573l-0.56,0.353l-0.087-1.573l-1.119,0.704  l-0.323-0.609l1.119-0.705l-1.206-0.868L29.053,66.339z M33.177,68.041H33.5h0.323v1.409l1.293,0.705v0.704l-1.293-0.704v1.408  h-0.646v-1.408l-1.293,0.704v-0.704l1.293-0.705V68.041z M31.237,65.575c0-1.362,1.013-2.467,2.263-2.467s2.263,1.104,2.263,2.467  c0,1.361-1.013,2.466-2.263,2.466S31.237,66.937,31.237,65.575z M33.5,67.302c0.875,0,1.584-0.773,1.584-1.727  s-0.709-1.727-1.584-1.727s-1.584,0.773-1.584,1.727S32.625,67.302,33.5,67.302z M33.177,61.7l-1.293-0.705V60.29l1.293,0.705  v-1.409h0.646v1.409l1.293-0.705v0.705L33.823,61.7v1.408H33.5h-0.323V61.7z M37.947,64.811l-1.206-0.868l-1.12,0.705l-0.323-0.61  l1.12-0.705l-0.087-1.572l0.56-0.353l0.087,1.572l1.12-0.704l0.323,0.61l-1.12,0.704l1.206,0.868L37.947,64.811z M35.621,66.503  l1.12,0.705l1.206-0.869l0.56,0.353l-1.206,0.868l1.12,0.705l-0.323,0.609l-1.12-0.704l-0.087,1.573l-0.56-0.353l0.087-1.573  l-1.12-0.704L35.621,66.503z M41.628,65.876l0.55-0.952l1.905,1.1l0.147-2.455l0.953,0.55l-0.147,2.455l1.905,1.101l-0.551,0.952  l-1.905-1.1l-2.052,1.355l-0.953-0.551l2.053-1.355L41.628,65.876z M42.434,71.269l2.052,1.355l1.905-1.101l0.551,0.952  l-1.905,1.101l0.147,2.455l-0.953,0.55l-0.147-2.455l-1.905,1.1l-0.55-0.952l1.905-1.1l-2.053-1.355L42.434,71.269z M49.45,73.925  H50h0.55v2.2l2.2,1.101v1.1l-2.2-1.1v2.199h-1.1v-2.199l-2.2,1.1v-1.1l2.2-1.101V73.925z M46.15,70.075  c0-2.127,1.724-3.85,3.85-3.85c2.127,0,3.851,1.723,3.851,3.85c0,2.126-1.724,3.85-3.851,3.85  C47.874,73.925,46.15,72.201,46.15,70.075z M50,72.771c1.488,0,2.695-1.207,2.695-2.695S51.488,67.38,50,67.38  s-2.695,1.207-2.695,2.695S48.512,72.771,50,72.771z M49.45,64.024l-2.2-1.1v-1.1l2.2,1.1v-2.199h1.1v2.199l2.2-1.1v1.1l-2.2,1.1  v2.201H50h-0.55V64.024z M57.567,68.882l-2.053-1.355l-1.905,1.1l-0.55-0.952l1.905-1.101l-0.147-2.455l0.952-0.55l0.147,2.455  l1.905-1.1l0.55,0.952l-1.905,1.1l2.053,1.355L57.567,68.882z M53.609,71.523l1.905,1.101l2.053-1.355l0.952,0.55l-2.053,1.355  l1.905,1.1l-0.55,0.952l-1.905-1.1l-0.147,2.455l-0.952-0.55l0.147-2.455l-1.905-1.101L53.609,71.523z M61.58,61.886l0.323-0.61  l1.119,0.704l0.087-1.572l0.56,0.353l-0.086,1.572l1.119,0.705l-0.323,0.61l-1.119-0.705l-1.207,0.868l-0.56-0.353l1.206-0.868  L61.58,61.886z M62.053,65.339l1.207,0.869l1.119-0.705l0.323,0.61l-1.119,0.704l0.086,1.573l-0.56,0.353l-0.087-1.573l-1.119,0.704  l-0.323-0.609l1.119-0.705l-1.206-0.868L62.053,65.339z M66.177,67.041H66.5h0.323v1.409l1.293,0.705v0.704l-1.293-0.704v1.408  h-0.646v-1.408l-1.293,0.704v-0.704l1.293-0.705V67.041z M64.237,64.575c0-1.362,1.013-2.467,2.263-2.467s2.263,1.104,2.263,2.467  c0,1.361-1.013,2.466-2.263,2.466S64.237,65.937,64.237,64.575z M66.5,66.302c0.875,0,1.584-0.773,1.584-1.727  s-0.709-1.727-1.584-1.727s-1.584,0.773-1.584,1.727S65.625,66.302,66.5,66.302z M66.177,60.7l-1.293-0.705V59.29l1.293,0.705  v-1.409h0.646v1.409l1.293-0.705v0.705L66.823,60.7v1.408H66.5h-0.323V60.7z M70.947,63.811l-1.206-0.868l-1.12,0.705l-0.323-0.61  l1.12-0.705l-0.087-1.572l0.56-0.353l0.087,1.572l1.12-0.704l0.323,0.61l-1.12,0.704l1.206,0.868L70.947,63.811z M68.621,65.503  l1.12,0.705l1.206-0.869l0.56,0.353l-1.206,0.868l1.12,0.705l-0.323,0.609l-1.12-0.704l-0.087,1.573l-0.56-0.353l0.087-1.573  l-1.12-0.704L68.621,65.503z"/></svg>