<svg xmlns="http://www.w3.org/2000/svg" xmlns:xlink="http://www.w3.org/1999/xlink" version="1.1" x="0px" y="0px" viewBox="0 0 48 60" enable-background="new 0 0 48 48" xml:space="preserve"><g><circle fill="#000000" cx="24" cy="24" r="13.9"/><g><g><path fill="#000000" d="M24,7c-0.8,0-1.4-0.6-1.4-1.4V1.9c0-0.8,0.6-1.4,1.4-1.4s1.4,0.6,1.4,1.4v3.7C25.4,6.4,24.8,7,24,7z"/></g><g><path fill="#000000" d="M24,47.5c-0.8,0-1.4-0.6-1.4-1.4v-3.7c0-0.8,0.6-1.4,1.4-1.4s1.4,0.6,1.4,1.4v3.7     C25.4,46.9,24.8,47.5,24,47.5z"/></g><g><path fill="#000000" d="M41,24c0-0.8,0.6-1.4,1.4-1.4h3.7c0.8,0,1.4,0.6,1.4,1.4c0,0.8-0.6,1.4-1.4,1.4h-3.7     C41.6,25.4,41,24.8,41,24z"/></g><g><path fill="#000000" d="M0.5,24c0-0.8,0.6-1.4,1.4-1.4h3.7C6.4,22.6,7,23.2,7,24c0,0.8-0.6,1.4-1.4,1.4H1.9     C1.1,25.4,0.5,24.8,0.5,24z"/></g></g><g><g><path fill="#000000" d="M12,12c-0.6,0.6-1.5,0.6-2,0L7.4,9.4c-0.6-0.6-0.6-1.5,0-2s1.5-0.6,2,0L12,10C12.5,10.5,12.5,11.4,12,12z     "/></g><g><path fill="#000000" d="M40.6,40.6c-0.6,0.6-1.5,0.6-2,0L36,38c-0.6-0.6-0.6-1.5,0-2s1.5-0.6,2,0l2.6,2.6     C41.2,39.2,41.2,40.1,40.6,40.6z"/></g><g><path fill="#000000" d="M36,12c-0.6-0.6-0.6-1.5,0-2l2.6-2.6c0.6-0.6,1.5-0.6,2,0s0.6,1.5,0,2L38,12C37.5,12.5,36.6,12.5,36,12z"/></g><g><path fill="#000000" d="M7.4,40.6c-0.6-0.6-0.6-1.5,0-2L10,36c0.6-0.6,1.5-0.6,2,0s0.6,1.5,0,2l-2.6,2.6     C8.8,41.2,7.9,41.2,7.4,40.6z"/></g></g></g></svg>