<svg xmlns="http://www.w3.org/2000/svg" viewBox="0 0 48 60" x="0px" y="0px"><title>Forecast, thunderstorm, weather, autumn</title><g><path d="M36.5381,16.8408a11.7814,11.7814,0,0,0-22.0674-3.6377q-.18-.0087-.3633-.0088a9.0943,9.0943,0,1,0,0,18.1885h5.4583l-1.0921,3.2754a.9991.9991,0,0,0,.9483,1.3164h1.042l-1.2559,5.65a1,1,0,0,0,1.6836.9238l6.8672-6.8672a1,1,0,0,0-.707-1.707H26.15l.8636-2.5918h8.6774a7.2956,7.2956,0,0,0,.8467-14.542ZM23.9512,35.56a1.0021,1.0021,0,0,0,.6933.4082l-2.7382,2.7383.7812-3.5147a1,1,0,0,0-.9766-1.2168H20.81l.8593-2.5781h3.2325l-1.0869,3.2617A.9993.9993,0,0,0,23.9512,35.56Zm11.74-6.1768H14.1074a7.0943,7.0943,0,1,1,0-14.1885,7.3221,7.3221,0,0,1,.8447.0557.9872.9872,0,0,0,1.0274-.5811,9.7819,9.7819,0,0,1,18.67,3.2081,1.0179,1.0179,0,0,0,1.0664.915,5.2954,5.2954,0,0,1-.0244,10.5908Z"/></g></svg>