<svg xmlns="http://www.w3.org/2000/svg" viewBox="0 0 48 60" x="0px" y="0px"><title>Forecast, thunderstorm, weather, autumn</title><g><path d="M26.9756,34.5918a.9988.9988,0,0,1-.2168,1.09l-6.8672,6.8672a1,1,0,0,1-1.6836-.9238l1.2559-5.65h-1.042a.9991.9991,0,0,1-.9483-1.3164l1.4253-3.2754h7.4487L25.15,33.9746h.9014A.999.999,0,0,1,26.9756,34.5918Zm9.5625-19.751a11.7814,11.7814,0,0,0-22.0674-3.6377q-.18-.0087-.3633-.0088a9.0943,9.0943,0,1,0,0,18.1885h21.584a7.2956,7.2956,0,0,0,.8467-14.542Z"/></g></svg>